<svg width="15" height="13" viewBox="0 0 15 13" fill="none" xmlns="http://www.w3.org/2000/svg">
<path d="M14.8747 8.6313L12.4962 6.83768V6.11735C12.4962 6.0186 12.4499 5.9256 12.371 5.86614L7.68941 2.33575C7.57722 2.25116 7.42269 2.25116 7.3105 2.33575L2.62888 5.86614C2.55004 5.9256 2.5037 6.0186 2.5037 6.11735V6.83768L0.125178 8.6313C0.0463407 8.69076 0 8.78376 0 8.88251V12.0613C0 12.235 0.140865 12.3759 0.314631 12.3759H2.81833H5.32203H9.67788H12.1816H14.6853C14.859 12.3759 14.9999 12.235 14.9999 12.0613V8.88251C14.9999 8.78376 14.9536 8.69076 14.8747 8.6313ZM7.84016 11.7466H7.1597V10.1606H7.84016V11.7466ZM8.46942 11.7466V9.84595C8.46942 9.67219 8.32856 9.53132 8.15479 9.53132H6.84507C6.67131 9.53132 6.53044 9.67219 6.53044 9.84595V11.7466H5.00736H3.13296V6.27413L7.49995 2.98097L11.8669 6.27413V11.7466H9.99251H8.46942ZM0.629262 9.03929L2.5037 7.62578V11.7466H0.629262V9.03929ZM14.3706 11.7466H12.4962V7.62578L14.3706 9.03929V11.7466Z" fill="#998473"/>
<path d="M0.504073 6.60836L7.49999 1.33285L14.4959 6.60841C14.5526 6.6512 14.6191 6.67188 14.6851 6.67188C14.7804 6.67188 14.8747 6.62868 14.9365 6.54665C15.0412 6.40794 15.0135 6.21063 14.8748 6.10603L7.68944 0.687589C7.57725 0.602998 7.42273 0.602998 7.31054 0.687589L0.125212 6.10599C-0.0135401 6.21063 -0.0411827 6.4079 0.0634547 6.54661C0.168047 6.68536 0.365411 6.713 0.504073 6.60836Z" fill="#998473"/>
</svg>
