<svg width="29" height="22" viewBox="0 0 29 22" fill="none" xmlns="http://www.w3.org/2000/svg">
<g filter="url(#filter0_d)">
<path d="M20.5579 2.19476H8.44206L5 6.65049L14.5 15.1948L24 6.65086L20.5579 2.19476Z" fill="white"/>
<path d="M20.9536 1.88911L20.8035 1.69476H20.5579H8.44206H8.19649L8.04637 1.8891L4.60431 6.34482L4.32068 6.71199L4.66564 7.02225L14.1656 15.5665L14.5 15.8672L14.8344 15.5665L24.3344 7.02263L24.6793 6.71238L24.3957 6.34521L20.9536 1.88911Z" stroke="white"/>
</g>
<path d="M20.558 2H8.44207L5 6.58925L14.5 15.3896L24.0001 6.58964L20.558 2ZM18.1189 6.92207L14.5016 14.0353L10.9145 6.92207H18.1189ZM11.2492 6.16481L14.5 2.91393L17.7509 6.16481H11.2492ZM15.414 2.7572H19.8129L18.5713 5.91455L15.414 2.7572ZM10.4768 5.86645L9.44052 2.7572H13.586L10.4768 5.86645ZM10.0667 6.92207L13.2161 13.1678L6.47359 6.92207H10.0667ZM18.9685 6.92207H22.5265L15.7995 13.1535L18.9685 6.92207ZM19.2866 6.16481L20.4728 3.14833L22.735 6.16481H19.2866ZM8.69722 2.92192L9.77816 6.16519H6.26458L8.69722 2.92192Z" fill="#6C6C6C"/>
<defs>
<filter id="filter0_d" x="0.641357" y="0.194763" width="27.7173" height="21.3449" filterUnits="userSpaceOnUse" color-interpolation-filters="sRGB">
<feFlood flood-opacity="0" result="BackgroundImageFix"/>
<feColorMatrix in="SourceAlpha" type="matrix" values="0 0 0 0 0 0 0 0 0 0 0 0 0 0 0 0 0 0 127 0"/>
<feOffset dy="2"/>
<feGaussianBlur stdDeviation="1.5"/>
<feColorMatrix type="matrix" values="0 0 0 0 0 0 0 0 0 0 0 0 0 0 0 0 0 0 0.25 0"/>
<feBlend mode="normal" in2="BackgroundImageFix" result="effect1_dropShadow"/>
<feBlend mode="normal" in="SourceGraphic" in2="effect1_dropShadow" result="shape"/>
</filter>
</defs>
</svg>
